<svg xmlns="http://www.w3.org/2000/svg" viewBox="0 0 732 712" width="732" height="712" font-family="-apple-system, Helvetica, Arial, sans-serif" role="img" aria-label="The matrix: rows and columns of wires (? = a key that is not mapped)"><title>The matrix: rows and columns of wires (? = a key that is not mapped)</title><rect width="100%" height="100%" fill="#fff"/><defs><pattern id="hatch" width="6" height="6" patternUnits="userSpaceOnUse" patternTransform="rotate(45)"><rect width="6" height="6" fill="#f4f4f4"/><line x1="0" y1="0" x2="0" y2="6" stroke="#cfcfcf" stroke-width="2"/></pattern></defs><text x="12" y="22" font-size="15" font-weight="600">The matrix: rows and columns of wires (? = a key that is not mapped)</text><text x="107.0" y="48" font-size="12" text-anchor="middle" fill="#444">col 1</text><text x="165.0" y="48" font-size="12" text-anchor="middle" fill="#444">col 2</text><text x="223.0" y="48" font-size="12" text-anchor="middle" fill="#444">col 3</text><text x="281.0" y="48" font-size="12" text-anchor="middle" fill="#444">col 4</text><text x="339.0" y="48" font-size="12" text-anchor="middle" fill="#444">col 5</text><text x="397.0" y="48" font-size="12" text-anchor="middle" fill="#444">col 6</text><text x="455.0" y="48" font-size="12" text-anchor="middle" fill="#444">col 7</text><text x="513.0" y="48" font-size="12" text-anchor="middle" fill="#444">col 8</text><text x="571.0" y="48" font-size="12" text-anchor="middle" fill="#444">col 9</text><text x="629.0" y="48" font-size="12" text-anchor="middle" fill="#444">col 0</text><text x="687.0" y="48" font-size="12" text-anchor="middle" fill="#444">col =</text><text x="70" y="91.0" font-size="12" text-anchor="end" fill="#444">row number</text><rect x="80" y="60" width="54" height="54" rx="5" fill="#eef3fb" stroke="#ccc" stroke-width="1"/><rect x="138" y="60" width="54" height="54" rx="5" fill="#eef3fb" stroke="#ccc" stroke-width="1"/><rect x="196" y="60" width="54" height="54" rx="5" fill="#eef3fb" stroke="#ccc" stroke-width="1"/><rect x="254" y="60" width="54" height="54" rx="5" fill="#eef3fb" stroke="#ccc" stroke-width="1"/><rect x="312" y="60" width="54" height="54" rx="5" fill="#eef3fb" stroke="#ccc" stroke-width="1"/><rect x="370" y="60" width="54" height="54" rx="5" fill="#eef3fb" stroke="#ccc" stroke-width="1"/><rect x="428" y="60" width="54" height="54" rx="5" fill="#eef3fb" stroke="#ccc" stroke-width="1"/><rect x="486" y="60" width="54" height="54" rx="5" fill="#eef3fb" stroke="#ccc" stroke-width="1"/><rect x="544" y="60" width="54" height="54" rx="5" fill="#eef3fb" stroke="#ccc" stroke-width="1"/><rect x="602" y="60" width="54" height="54" rx="5" fill="#eef3fb" stroke="#ccc" stroke-width="1"/><rect x="660" y="60" width="54" height="54" rx="5" fill="#eef3fb" stroke="#ccc" stroke-width="1"/><text x="70" y="149.0" font-size="12" text-anchor="end" fill="#444">row top</text><rect x="80" y="118" width="54" height="54" rx="5" fill="#eef3fb" stroke="#ccc" stroke-width="1"/><rect x="138" y="118" width="54" height="54" rx="5" fill="#fff" stroke="#ccc" stroke-width="1"/><rect x="196" y="118" width="54" height="54" rx="5" fill="#fff" stroke="#ccc" stroke-width="1"/><rect x="254" y="118" width="54" height="54" rx="5" fill="#fff" stroke="#ccc" stroke-width="1"/><rect x="312" y="118" width="54" height="54" rx="5" fill="#eef3fb" stroke="#ccc" stroke-width="1"/><rect x="370" y="118" width="54" height="54" rx="5" fill="#eef3fb" stroke="#ccc" stroke-width="1"/><rect x="428" y="118" width="54" height="54" rx="5" fill="#eef3fb" stroke="#ccc" stroke-width="1"/><rect x="486" y="118" width="54" height="54" rx="5" fill="#eef3fb" stroke="#ccc" stroke-width="1"/><rect x="544" y="118" width="54" height="54" rx="5" fill="#eef3fb" stroke="#ccc" stroke-width="1"/><rect x="602" y="118" width="54" height="54" rx="5" fill="#eef3fb" stroke="#ccc" stroke-width="1"/><rect x="660" y="118" width="54" height="54" rx="5" fill="#fff" stroke="#ccc" stroke-width="1"/><text x="70" y="207.0" font-size="12" text-anchor="end" fill="#444">row home</text><rect x="80" y="176" width="54" height="54" rx="5" fill="#eef3fb" stroke="#ccc" stroke-width="1"/><rect x="138" y="176" width="54" height="54" rx="5" fill="#fff" stroke="#ccc" stroke-width="1"/><rect x="196" y="176" width="54" height="54" rx="5" fill="#fff" stroke="#ccc" stroke-width="1"/><rect x="254" y="176" width="54" height="54" rx="5" fill="#eef3fb" stroke="#ccc" stroke-width="1"/><rect x="312" y="176" width="54" height="54" rx="5" fill="#fff" stroke="#ccc" stroke-width="1"/><rect x="370" y="176" width="54" height="54" rx="5" fill="#eef3fb" stroke="#ccc" stroke-width="1"/><rect x="428" y="176" width="54" height="54" rx="5" fill="#eef3fb" stroke="#ccc" stroke-width="1"/><rect x="486" y="176" width="54" height="54" rx="5" fill="#eef3fb" stroke="#ccc" stroke-width="1"/><rect x="544" y="176" width="54" height="54" rx="5" fill="#eef3fb" stroke="#ccc" stroke-width="1"/><rect x="602" y="176" width="54" height="54" rx="5" fill="#eef3fb" stroke="#ccc" stroke-width="1"/><rect x="660" y="176" width="54" height="54" rx="5" fill="#fff" stroke="#ccc" stroke-width="1"/><text x="70" y="265.0" font-size="12" text-anchor="end" fill="#444">row bottom</text><rect x="80" y="234" width="54" height="54" rx="5" fill="#eef3fb" stroke="#ccc" stroke-width="1"/><rect x="138" y="234" width="54" height="54" rx="5" fill="#eef3fb" stroke="#ccc" stroke-width="1"/><rect x="196" y="234" width="54" height="54" rx="5" fill="#eef3fb" stroke="#ccc" stroke-width="1"/><rect x="254" y="234" width="54" height="54" rx="5" fill="#fff" stroke="#ccc" stroke-width="1"/><rect x="312" y="234" width="54" height="54" rx="5" fill="#fff" stroke="#ccc" stroke-width="1"/><rect x="370" y="234" width="54" height="54" rx="5" fill="#eef3fb" stroke="#ccc" stroke-width="1"/><rect x="428" y="234" width="54" height="54" rx="5" fill="#eef3fb" stroke="#ccc" stroke-width="1"/><rect x="486" y="234" width="54" height="54" rx="5" fill="#eef3fb" stroke="#ccc" stroke-width="1"/><rect x="544" y="234" width="54" height="54" rx="5" fill="#eef3fb" stroke="#ccc" stroke-width="1"/><rect x="602" y="234" width="54" height="54" rx="5" fill="#eef3fb" stroke="#ccc" stroke-width="1"/><rect x="660" y="234" width="54" height="54" rx="5" fill="#fff" stroke="#ccc" stroke-width="1"/><text x="70" y="323.0" font-size="12" text-anchor="end" fill="#444">row space</text><rect x="80" y="292" width="54" height="54" rx="5" fill="#eef3fb" stroke="#ccc" stroke-width="1"/><rect x="138" y="292" width="54" height="54" rx="5" fill="url(#hatch)" stroke="#ccc" stroke-width="1"/><rect x="196" y="292" width="54" height="54" rx="5" fill="url(#hatch)" stroke="#ccc" stroke-width="1"/><rect x="254" y="292" width="54" height="54" rx="5" fill="#fff" stroke="#ccc" stroke-width="1"/><rect x="312" y="292" width="54" height="54" rx="5" fill="url(#hatch)" stroke="#ccc" stroke-width="1"/><rect x="370" y="292" width="54" height="54" rx="5" fill="#eef3fb" stroke="#ccc" stroke-width="1"/><rect x="428" y="292" width="54" height="54" rx="5" fill="url(#hatch)" stroke="#ccc" stroke-width="1"/><rect x="486" y="292" width="54" height="54" rx="5" fill="url(#hatch)" stroke="#ccc" stroke-width="1"/><rect x="544" y="292" width="54" height="54" rx="5" fill="#fff" stroke="#ccc" stroke-width="1"/><rect x="602" y="292" width="54" height="54" rx="5" fill="#eef3fb" stroke="#ccc" stroke-width="1"/><rect x="660" y="292" width="54" height="54" rx="5" fill="#fff" stroke="#ccc" stroke-width="1"/><text x="70" y="381.0" font-size="12" text-anchor="end" fill="#444">row bracket</text><rect x="80" y="350" width="54" height="54" rx="5" fill="#fff" stroke="#ccc" stroke-width="1"/><rect x="138" y="350" width="54" height="54" rx="5" fill="#fff" stroke="#ccc" stroke-width="1"/><rect x="196" y="350" width="54" height="54" rx="5" fill="url(#hatch)" stroke="#ccc" stroke-width="1"/><rect x="254" y="350" width="54" height="54" rx="5" fill="url(#hatch)" stroke="#ccc" stroke-width="1"/><rect x="312" y="350" width="54" height="54" rx="5" fill="#eef3fb" stroke="#ccc" stroke-width="1"/><rect x="370" y="350" width="54" height="54" rx="5" fill="#eef3fb" stroke="#ccc" stroke-width="1"/><rect x="428" y="350" width="54" height="54" rx="5" fill="url(#hatch)" stroke="#ccc" stroke-width="1"/><rect x="486" y="350" width="54" height="54" rx="5" fill="#eef3fb" stroke="#ccc" stroke-width="1"/><rect x="544" y="350" width="54" height="54" rx="5" fill="url(#hatch)" stroke="#ccc" stroke-width="1"/><rect x="602" y="350" width="54" height="54" rx="5" fill="url(#hatch)" stroke="#ccc" stroke-width="1"/><rect x="660" y="350" width="54" height="54" rx="5" fill="#fff" stroke="#ccc" stroke-width="1"/><text x="70" y="439.0" font-size="12" text-anchor="end" fill="#444">row minus</text><rect x="80" y="408" width="54" height="54" rx="5" fill="url(#hatch)" stroke="#ccc" stroke-width="1"/><rect x="138" y="408" width="54" height="54" rx="5" fill="url(#hatch)" stroke="#ccc" stroke-width="1"/><rect x="196" y="408" width="54" height="54" rx="5" fill="url(#hatch)" stroke="#ccc" stroke-width="1"/><rect x="254" y="408" width="54" height="54" rx="5" fill="#fff" stroke="#ccc" stroke-width="1"/><rect x="312" y="408" width="54" height="54" rx="5" fill="#fff" stroke="#ccc" stroke-width="1"/><rect x="370" y="408" width="54" height="54" rx="5" fill="#fff" stroke="#ccc" stroke-width="1"/><rect x="428" y="408" width="54" height="54" rx="5" fill="url(#hatch)" stroke="#ccc" stroke-width="1"/><rect x="486" y="408" width="54" height="54" rx="5" fill="url(#hatch)" stroke="#ccc" stroke-width="1"/><rect x="544" y="408" width="54" height="54" rx="5" fill="#eef3fb" stroke="#ccc" stroke-width="1"/><rect x="602" y="408" width="54" height="54" rx="5" fill="url(#hatch)" stroke="#ccc" stroke-width="1"/><rect x="660" y="408" width="54" height="54" rx="5" fill="url(#hatch)" stroke="#ccc" stroke-width="1"/><text x="70" y="497.0" font-size="12" text-anchor="end" fill="#444">row wr</text><rect x="80" y="466" width="54" height="54" rx="5" fill="#fff" stroke="#ccc" stroke-width="1"/><rect x="138" y="466" width="54" height="54" rx="5" fill="#eef3fb" stroke="#ccc" stroke-width="1"/><rect x="196" y="466" width="54" height="54" rx="5" fill="#fff" stroke="#ccc" stroke-width="1"/><rect x="254" y="466" width="54" height="54" rx="5" fill="#eef3fb" stroke="#ccc" stroke-width="1"/><rect x="312" y="466" width="54" height="54" rx="5" fill="#fff" stroke="#ccc" stroke-width="1"/><rect x="370" y="466" width="54" height="54" rx="5" fill="#fff" stroke="#ccc" stroke-width="1"/><rect x="428" y="466" width="54" height="54" rx="5" fill="#fff" stroke="#ccc" stroke-width="1"/><rect x="486" y="466" width="54" height="54" rx="5" fill="#fff" stroke="#ccc" stroke-width="1"/><rect x="544" y="466" width="54" height="54" rx="5" fill="#fff" stroke="#ccc" stroke-width="1"/><rect x="602" y="466" width="54" height="54" rx="5" fill="#fff" stroke="#ccc" stroke-width="1"/><rect x="660" y="466" width="54" height="54" rx="5" fill="#fff" stroke="#ccc" stroke-width="1"/><text x="70" y="555.0" font-size="12" text-anchor="end" fill="#444">row sg</text><rect x="80" y="524" width="54" height="54" rx="5" fill="#fff" stroke="#ccc" stroke-width="1"/><rect x="138" y="524" width="54" height="54" rx="5" fill="#eef3fb" stroke="#ccc" stroke-width="1"/><rect x="196" y="524" width="54" height="54" rx="5" fill="#fff" stroke="#ccc" stroke-width="1"/><rect x="254" y="524" width="54" height="54" rx="5" fill="#fff" stroke="#ccc" stroke-width="1"/><rect x="312" y="524" width="54" height="54" rx="5" fill="#eef3fb" stroke="#ccc" stroke-width="1"/><rect x="370" y="524" width="54" height="54" rx="5" fill="#fff" stroke="#ccc" stroke-width="1"/><rect x="428" y="524" width="54" height="54" rx="5" fill="#fff" stroke="#ccc" stroke-width="1"/><rect x="486" y="524" width="54" height="54" rx="5" fill="#fff" stroke="#ccc" stroke-width="1"/><rect x="544" y="524" width="54" height="54" rx="5" fill="#fff" stroke="#ccc" stroke-width="1"/><rect x="602" y="524" width="54" height="54" rx="5" fill="#fff" stroke="#ccc" stroke-width="1"/><rect x="660" y="524" width="54" height="54" rx="5" fill="#fff" stroke="#ccc" stroke-width="1"/><text x="70" y="613.0" font-size="12" text-anchor="end" fill="#444">row dvb</text><rect x="80" y="582" width="54" height="54" rx="5" fill="#fff" stroke="#ccc" stroke-width="1"/><rect x="138" y="582" width="54" height="54" rx="5" fill="#fff" stroke="#ccc" stroke-width="1"/><rect x="196" y="582" width="54" height="54" rx="5" fill="#eef3fb" stroke="#ccc" stroke-width="1"/><rect x="254" y="582" width="54" height="54" rx="5" fill="#eef3fb" stroke="#ccc" stroke-width="1"/><rect x="312" y="582" width="54" height="54" rx="5" fill="#eef3fb" stroke="#ccc" stroke-width="1"/><rect x="370" y="582" width="54" height="54" rx="5" fill="#fff" stroke="#ccc" stroke-width="1"/><rect x="428" y="582" width="54" height="54" rx="5" fill="#fff" stroke="#ccc" stroke-width="1"/><rect x="486" y="582" width="54" height="54" rx="5" fill="#fff" stroke="#ccc" stroke-width="1"/><rect x="544" y="582" width="54" height="54" rx="5" fill="#fff" stroke="#ccc" stroke-width="1"/><rect x="602" y="582" width="54" height="54" rx="5" fill="#fff" stroke="#ccc" stroke-width="1"/><rect x="660" y="582" width="54" height="54" rx="5" fill="#fff" stroke="#ccc" stroke-width="1"/><text x="70" y="671.0" font-size="12" text-anchor="end" fill="#444">row e</text><rect x="80" y="640" width="54" height="54" rx="5" fill="#fff" stroke="#ccc" stroke-width="1"/><rect x="138" y="640" width="54" height="54" rx="5" fill="#fff" stroke="#ccc" stroke-width="1"/><rect x="196" y="640" width="54" height="54" rx="5" fill="#eef3fb" stroke="#ccc" stroke-width="1"/><rect x="254" y="640" width="54" height="54" rx="5" fill="#fff" stroke="#ccc" stroke-width="1"/><rect x="312" y="640" width="54" height="54" rx="5" fill="#fff" stroke="#ccc" stroke-width="1"/><rect x="370" y="640" width="54" height="54" rx="5" fill="#fff" stroke="#ccc" stroke-width="1"/><rect x="428" y="640" width="54" height="54" rx="5" fill="#fff" stroke="#ccc" stroke-width="1"/><rect x="486" y="640" width="54" height="54" rx="5" fill="#fff" stroke="#ccc" stroke-width="1"/><rect x="544" y="640" width="54" height="54" rx="5" fill="#fff" stroke="#ccc" stroke-width="1"/><rect x="602" y="640" width="54" height="54" rx="5" fill="#fff" stroke="#ccc" stroke-width="1"/><rect x="660" y="640" width="54" height="54" rx="5" fill="#fff" stroke="#ccc" stroke-width="1"/><text x="107.0" y="88.0" font-size="18" text-anchor="middle" dominant-baseline="middle" fill="#111" font-weight="600">1</text><text x="165.0" y="88.0" font-size="18" text-anchor="middle" dominant-baseline="middle" fill="#111" font-weight="600">2</text><text x="223.0" y="88.0" font-size="18" text-anchor="middle" dominant-baseline="middle" fill="#111" font-weight="600">3</text><text x="281.0" y="88.0" font-size="18" text-anchor="middle" dominant-baseline="middle" fill="#111" font-weight="600">4</text><text x="339.0" y="88.0" font-size="18" text-anchor="middle" dominant-baseline="middle" fill="#111" font-weight="600">5</text><text x="397.0" y="88.0" font-size="18" text-anchor="middle" dominant-baseline="middle" fill="#111" font-weight="600">6</text><text x="455.0" y="88.0" font-size="18" text-anchor="middle" dominant-baseline="middle" fill="#111" font-weight="600">7</text><text x="513.0" y="88.0" font-size="18" text-anchor="middle" dominant-baseline="middle" fill="#111" font-weight="600">8</text><text x="571.0" y="88.0" font-size="18" text-anchor="middle" dominant-baseline="middle" fill="#111" font-weight="600">9</text><text x="629.0" y="88.0" font-size="18" text-anchor="middle" dominant-baseline="middle" fill="#111" font-weight="600">0</text><text x="687.0" y="88.0" font-size="18" text-anchor="middle" dominant-baseline="middle" fill="#111" font-weight="600">=</text><text x="107.0" y="146.0" font-size="18" text-anchor="middle" dominant-baseline="middle" fill="#111" font-weight="600">Q</text><text x="339.0" y="146.0" font-size="18" text-anchor="middle" dominant-baseline="middle" fill="#111" font-weight="600">T</text><text x="397.0" y="146.0" font-size="18" text-anchor="middle" dominant-baseline="middle" fill="#111" font-weight="600">Y</text><text x="455.0" y="146.0" font-size="18" text-anchor="middle" dominant-baseline="middle" fill="#111" font-weight="600">U</text><text x="513.0" y="146.0" font-size="18" text-anchor="middle" dominant-baseline="middle" fill="#111" font-weight="600">I</text><text x="571.0" y="146.0" font-size="18" text-anchor="middle" dominant-baseline="middle" fill="#111" font-weight="600">O</text><text x="629.0" y="146.0" font-size="18" text-anchor="middle" dominant-baseline="middle" fill="#111" font-weight="600">P</text><text x="107.0" y="204.0" font-size="18" text-anchor="middle" dominant-baseline="middle" fill="#111" font-weight="600">A</text><text x="281.0" y="204.0" font-size="18" text-anchor="middle" dominant-baseline="middle" fill="#111" font-weight="600">F</text><text x="397.0" y="204.0" font-size="18" text-anchor="middle" dominant-baseline="middle" fill="#111" font-weight="600">H</text><text x="455.0" y="204.0" font-size="18" text-anchor="middle" dominant-baseline="middle" fill="#111" font-weight="600">J</text><text x="513.0" y="204.0" font-size="18" text-anchor="middle" dominant-baseline="middle" fill="#111" font-weight="600">K</text><text x="571.0" y="204.0" font-size="18" text-anchor="middle" dominant-baseline="middle" fill="#111" font-weight="600">L</text><text x="629.0" y="204.0" font-size="18" text-anchor="middle" dominant-baseline="middle" fill="#111" font-weight="600">;</text><text x="107.0" y="262.0" font-size="18" text-anchor="middle" dominant-baseline="middle" fill="#111" font-weight="600">Z</text><text x="165.0" y="262.0" font-size="18" text-anchor="middle" dominant-baseline="middle" fill="#111" font-weight="600">X</text><text x="223.0" y="262.0" font-size="18" text-anchor="middle" dominant-baseline="middle" fill="#111" font-weight="600">C</text><text x="397.0" y="262.0" font-size="18" text-anchor="middle" dominant-baseline="middle" fill="#111" font-weight="600">N</text><text x="455.0" y="262.0" font-size="18" text-anchor="middle" dominant-baseline="middle" fill="#111" font-weight="600">M</text><text x="513.0" y="262.0" font-size="18" text-anchor="middle" dominant-baseline="middle" fill="#111" font-weight="600">,</text><text x="571.0" y="262.0" font-size="18" text-anchor="middle" dominant-baseline="middle" fill="#111" font-weight="600">.</text><text x="629.0" y="262.0" font-size="18" text-anchor="middle" dominant-baseline="middle" fill="#111" font-weight="600">/</text><text x="107.0" y="320.0" font-size="18" text-anchor="middle" dominant-baseline="middle" fill="#111" font-weight="600">`</text><text x="165.0" y="320.0" font-size="18" text-anchor="middle" dominant-baseline="middle" fill="#666" font-weight="400">?</text><text x="223.0" y="320.0" font-size="18" text-anchor="middle" dominant-baseline="middle" fill="#666" font-weight="400">?</text><text x="339.0" y="320.0" font-size="18" text-anchor="middle" dominant-baseline="middle" fill="#666" font-weight="400">?</text><text x="397.0" y="320.0" font-size="12" text-anchor="middle" dominant-baseline="middle" fill="#111" font-weight="600">space</text><text x="455.0" y="320.0" font-size="18" text-anchor="middle" dominant-baseline="middle" fill="#666" font-weight="400">?</text><text x="513.0" y="320.0" font-size="18" text-anchor="middle" dominant-baseline="middle" fill="#666" font-weight="400">?</text><text x="629.0" y="320.0" font-size="18" text-anchor="middle" dominant-baseline="middle" fill="#111" font-weight="600">&#x27;</text><text x="223.0" y="378.0" font-size="18" text-anchor="middle" dominant-baseline="middle" fill="#666" font-weight="400">?</text><text x="281.0" y="378.0" font-size="18" text-anchor="middle" dominant-baseline="middle" fill="#666" font-weight="400">?</text><text x="339.0" y="378.0" font-size="18" text-anchor="middle" dominant-baseline="middle" fill="#111" font-weight="600">\</text><text x="397.0" y="378.0" font-size="18" text-anchor="middle" dominant-baseline="middle" fill="#111" font-weight="600">]</text><text x="455.0" y="378.0" font-size="18" text-anchor="middle" dominant-baseline="middle" fill="#666" font-weight="400">?</text><text x="513.0" y="378.0" font-size="18" text-anchor="middle" dominant-baseline="middle" fill="#111" font-weight="600">[</text><text x="571.0" y="378.0" font-size="18" text-anchor="middle" dominant-baseline="middle" fill="#666" font-weight="400">?</text><text x="629.0" y="378.0" font-size="18" text-anchor="middle" dominant-baseline="middle" fill="#666" font-weight="400">?</text><text x="107.0" y="436.0" font-size="18" text-anchor="middle" dominant-baseline="middle" fill="#666" font-weight="400">?</text><text x="165.0" y="436.0" font-size="18" text-anchor="middle" dominant-baseline="middle" fill="#666" font-weight="400">?</text><text x="223.0" y="436.0" font-size="18" text-anchor="middle" dominant-baseline="middle" fill="#666" font-weight="400">?</text><text x="455.0" y="436.0" font-size="18" text-anchor="middle" dominant-baseline="middle" fill="#666" font-weight="400">?</text><text x="513.0" y="436.0" font-size="18" text-anchor="middle" dominant-baseline="middle" fill="#666" font-weight="400">?</text><text x="571.0" y="436.0" font-size="18" text-anchor="middle" dominant-baseline="middle" fill="#111" font-weight="600">-</text><text x="629.0" y="436.0" font-size="18" text-anchor="middle" dominant-baseline="middle" fill="#666" font-weight="400">?</text><text x="687.0" y="436.0" font-size="18" text-anchor="middle" dominant-baseline="middle" fill="#666" font-weight="400">?</text><text x="165.0" y="494.0" font-size="18" text-anchor="middle" dominant-baseline="middle" fill="#111" font-weight="600">W</text><text x="281.0" y="494.0" font-size="18" text-anchor="middle" dominant-baseline="middle" fill="#111" font-weight="600">R</text><text x="165.0" y="552.0" font-size="18" text-anchor="middle" dominant-baseline="middle" fill="#111" font-weight="600">S</text><text x="339.0" y="552.0" font-size="18" text-anchor="middle" dominant-baseline="middle" fill="#111" font-weight="600">G</text><text x="223.0" y="610.0" font-size="18" text-anchor="middle" dominant-baseline="middle" fill="#111" font-weight="600">D</text><text x="281.0" y="610.0" font-size="18" text-anchor="middle" dominant-baseline="middle" fill="#111" font-weight="600">V</text><text x="339.0" y="610.0" font-size="18" text-anchor="middle" dominant-baseline="middle" fill="#111" font-weight="600">B</text><text x="223.0" y="668.0" font-size="18" text-anchor="middle" dominant-baseline="middle" fill="#111" font-weight="600">E</text></svg>
